<svg width="139" height="59" viewBox="0 0 139 59" fill="none" xmlns="http://www.w3.org/2000/svg">
<mask id="mask0_608_7612" style="mask-type:alpha" maskUnits="userSpaceOnUse" x="0" y="16" width="19" height="21">
<path d="M0.960938 16.3889H18.6491V36.5223H0.960938V16.3889Z" fill="#008085"/>
</mask>
<g mask="url(#mask0_608_7612)">
<path d="M10.8938 36.5225C5.41703 36.5225 0.961182 32.0067 0.961182 26.456C0.961182 20.9052 5.41703 16.3889 10.8938 16.3889C13.8083 16.3889 16.5649 17.6793 18.4566 19.9295L16.1872 21.8888C14.863 20.3138 12.9337 19.4106 10.8938 19.4106C7.06092 19.4106 3.94239 22.5708 3.94239 26.456C3.94239 30.3406 7.06092 33.5007 10.8938 33.5007C13.0156 33.5007 14.9942 32.5373 16.3227 30.8563L18.6496 32.7456C16.7522 35.1457 13.9255 36.5225 10.8938 36.5225Z" fill="#008085"/>
</g>
<path d="M35.253 25.1859H24.3329C24.8118 21.9057 27.041 19.6435 29.8424 19.6435C33.3144 19.6435 34.9003 22.4488 35.253 25.1859ZM30.064 16.7693C24.987 16.7693 21.1582 20.9824 21.1582 26.57C21.1582 32.1578 25.1359 36.3715 30.411 36.3715C33.5285 36.3715 35.8775 35.2879 38.0273 32.8576L38.22 32.6401L36.1284 30.7414L35.9354 30.9466C34.342 32.6388 32.6088 33.4265 30.4808 33.4265C27.3174 33.4265 24.9417 31.2419 24.4823 27.9544H38.6688L38.691 27.686C38.7263 27.252 38.7263 26.9651 38.7263 26.7113C38.7263 20.7649 35.245 16.7693 30.064 16.7693Z" fill="#008085"/>
<path d="M51.569 16.7693C49.1149 16.7693 47.1469 17.7432 45.7076 19.6667V17.157H42.4551V35.948H45.7076V25.2316C45.7076 22.0451 47.8038 19.8195 50.8049 19.8195C53.7356 19.8195 55.4851 21.7634 55.4851 25.0198V35.948H58.7379V24.3517C58.7379 19.7453 55.9238 16.7693 51.569 16.7693Z" fill="#008085"/>
<path d="M68.8467 36.2744C69.7365 36.2744 70.6758 36.165 71.8902 35.9201L71.5417 33.0947C70.9293 33.1829 70.5377 33.225 70.0096 33.225C67.9705 33.225 67.0204 32.421 67.0204 30.6952V20.2012H72.5655V17.1985H67.0204V13.2551L63.6543 15.9066V30.3309C63.6543 34.3302 65.3525 36.2744 68.8467 36.2744Z" fill="#008085"/>
<mask id="mask1_608_7612" style="mask-type:alpha" maskUnits="userSpaceOnUse" x="0" y="0" width="139" height="37">
<path d="M0.960938 36.5227H138.961V0H0.960938V36.5227Z" fill="#008085"/>
</mask>
<g mask="url(#mask1_608_7612)">
<path d="M76.6035 35.948H79.856V17.1567H76.6035V35.948Z" fill="#008085"/>
</g>
<mask id="mask2_608_7612" style="mask-type:alpha" maskUnits="userSpaceOnUse" x="0" y="0" width="139" height="37">
<path d="M0.960938 36.5227H138.961V0H0.960938V36.5227Z" fill="#008085"/>
</mask>
<g mask="url(#mask2_608_7612)">
<path d="M106.408 16.7693C103.766 16.7693 101.703 17.8667 100.116 20.1211C98.9112 17.9544 96.8698 16.7693 94.316 16.7693C91.5319 16.7693 89.9011 18.1586 88.8021 19.6012V17.157H85.5488V35.948H88.8021V25.2666C88.8021 22.1101 90.7847 19.8195 93.5168 19.8195C96.2299 19.8195 97.8498 21.7375 97.8498 24.9507V35.948H101.067V25.1614C101.067 21.4712 103.418 19.8195 105.747 19.8195C108.523 19.8195 110.115 21.7151 110.115 25.0198V35.948H113.368V24.3864C113.368 19.6881 110.701 16.7693 106.408 16.7693Z" fill="#008085"/>
</g>
<mask id="mask3_608_7612" style="mask-type:alpha" maskUnits="userSpaceOnUse" x="0" y="0" width="139" height="37">
<path d="M0.960938 36.5227H138.961V0H0.960938V36.5227Z" fill="#008085"/>
</mask>
<g mask="url(#mask3_608_7612)">
<path d="M131.26 25.1859H120.34C120.819 21.9065 123.047 19.6435 125.85 19.6435C129.321 19.6435 130.907 22.4488 131.26 25.1859ZM125.92 16.7693C120.842 16.7693 117.014 20.9824 117.014 26.57C117.014 32.1578 120.992 36.3715 126.267 36.3715C129.385 36.3715 131.733 35.2879 133.883 32.8576L134.075 32.6401L131.984 30.7414L131.791 30.9466C130.198 32.6388 128.464 33.4265 126.336 33.4265C123.172 33.4265 120.797 31.2419 120.338 27.9544H134.524L134.546 27.686C134.581 27.252 134.581 26.9651 134.581 26.7113C134.581 20.7649 131.101 16.7693 125.92 16.7693Z" fill="#008085"/>
</g>
<mask id="mask4_608_7612" style="mask-type:alpha" maskUnits="userSpaceOnUse" x="0" y="0" width="139" height="37">
<path d="M0.960938 36.5227H138.961V0H0.960938V36.5227Z" fill="#008085"/>
</mask>
<g mask="url(#mask4_608_7612)">
<path d="M134.562 18.9905C134.562 18.5903 134.654 18.2187 134.836 17.8759C135.019 17.5331 135.272 17.2632 135.595 17.066C135.918 16.8688 136.268 16.7703 136.643 16.7703C137.018 16.7703 137.366 16.8688 137.688 17.066C138.011 17.2632 138.263 17.5331 138.446 17.8759C138.628 18.2187 138.72 18.5903 138.72 18.9905C138.72 19.3809 138.632 19.7464 138.456 20.0873C138.28 20.4281 138.031 20.702 137.708 20.9091C137.384 21.1161 137.029 21.2197 136.643 21.2197C136.258 21.2197 135.904 21.1171 135.581 20.9121C135.257 20.707 135.007 20.434 134.829 20.0932C134.651 19.7524 134.562 19.3848 134.562 18.9905ZM134.899 18.9905C134.899 19.3313 134.978 19.6469 135.134 19.9372C135.29 20.2275 135.502 20.4548 135.771 20.6193C136.04 20.7838 136.33 20.866 136.643 20.866C136.957 20.866 137.249 20.7823 137.519 20.6148C137.788 20.4474 138 20.22 138.153 19.9327C138.306 19.6454 138.383 19.3313 138.383 18.9905C138.383 18.6517 138.306 18.3391 138.153 18.0528C138 17.7665 137.788 17.5406 137.519 17.3751C137.249 17.2097 136.957 17.1269 136.643 17.1269C136.33 17.1269 136.039 17.2087 135.77 17.3721C135.5 17.5356 135.288 17.762 135.132 18.0513C134.977 18.3406 134.899 18.6537 134.899 18.9905ZM136.212 19.2134V20.218H135.799V17.6946H136.607C136.906 17.6946 137.138 17.7595 137.303 17.8893C137.468 18.0191 137.551 18.2078 137.551 18.4555C137.551 18.6992 137.426 18.8855 137.176 19.0143C137.414 19.1134 137.534 19.3155 137.536 19.6206V19.8019C137.536 19.9723 137.553 20.0952 137.586 20.1705V20.218H137.161C137.134 20.1467 137.12 20.0194 137.12 19.8361C137.12 19.6528 137.117 19.5443 137.111 19.5107C137.08 19.3204 136.952 19.2214 136.728 19.2134H136.212ZM136.212 18.833H136.669C136.81 18.829 136.923 18.7943 137.009 18.729C137.095 18.6636 137.138 18.5774 137.138 18.4704C137.138 18.3257 137.1 18.2232 137.023 18.1627C136.947 18.1023 136.812 18.0721 136.616 18.0721H136.212V18.833Z" fill="#008085"/>
</g>
<mask id="mask5_608_7612" style="mask-type:alpha" maskUnits="userSpaceOnUse" x="0" y="0" width="139" height="37">
<path d="M0.960938 36.5227H138.961V0H0.960938V36.5227Z" fill="white"/>
</mask>
<g mask="url(#mask5_608_7612)">
<path d="M83.8243 0L68.7822 11.8613H74.8392L79.8564 7.90564V11.8613H83.8243V0Z" fill="#F6BD3E"/>
</g>
<path d="M6.33594 58.9995C7.01823 58.9995 7.61458 58.9031 8.125 58.7102C8.63542 58.5173 9.06771 58.2505 9.42188 57.9097C9.77604 57.5689 10.0534 57.1646 10.2539 56.697C10.4544 56.2294 10.5859 55.7234 10.6484 55.1792H9.14062C9.07812 55.5861 8.98698 55.9493 8.86719 56.269C8.7474 56.5887 8.57943 56.8582 8.36328 57.0775C8.14714 57.2967 7.875 57.4645 7.54688 57.5807C7.21875 57.697 6.8151 57.7551 6.33594 57.7551C5.83073 57.7551 5.39323 57.6481 5.02344 57.4341C4.65365 57.2201 4.34896 56.9269 4.10938 56.5543C3.86979 56.1818 3.69141 55.7472 3.57422 55.2505C3.45703 54.7538 3.39844 54.2228 3.39844 53.6574V52.4844C3.39844 51.8767 3.46354 51.3206 3.59375 50.816C3.72396 50.3114 3.91797 49.8807 4.17578 49.524C4.43359 49.1674 4.75391 48.89 5.13672 48.6918C5.51953 48.4937 5.96354 48.3946 6.46875 48.3946C6.90625 48.3946 7.28125 48.4554 7.59375 48.5769C7.90625 48.6984 8.16797 48.8728 8.37891 49.1C8.58984 49.3272 8.75521 49.602 8.875 49.9243C8.99479 50.2466 9.08333 50.6086 9.14062 51.0102H10.6484C10.5911 50.4395 10.4609 49.9177 10.2578 49.4448C10.0547 48.9719 9.77995 48.565 9.43359 48.2242C9.08724 47.8834 8.66667 47.6179 8.17188 47.4276C7.67708 47.2374 7.10938 47.1423 6.46875 47.1423C5.76563 47.1423 5.13151 47.2704 4.56641 47.5267C4.0013 47.783 3.52083 48.1449 3.125 48.6126C2.72917 49.0802 2.42448 49.6429 2.21094 50.3008C1.9974 50.9586 1.89062 51.6918 1.89062 52.5002V53.6574C1.89062 54.4659 1.99609 55.1977 2.20703 55.8529C2.41797 56.5081 2.71745 57.0695 3.10547 57.5372C3.49349 58.0048 3.96094 58.3654 4.50781 58.619C5.05469 58.8727 5.66406 58.9995 6.33594 58.9995ZM15.0781 58.9995C15.3385 58.9995 15.5859 58.9717 15.8203 58.9163C16.0547 58.8608 16.2721 58.7842 16.4727 58.6864C16.6732 58.5887 16.8581 58.4751 17.0273 58.3456C17.1966 58.2161 17.349 58.0801 17.4844 57.9374C17.5052 58.1118 17.5312 58.2796 17.5625 58.4407C17.5938 58.6019 17.6354 58.7353 17.6875 58.841H19.2031V58.7142C19.1042 58.4817 19.0299 58.2056 18.9805 57.8859C18.931 57.5662 18.9062 57.2611 18.9062 56.9705V52.9837C18.9062 52.5029 18.8281 52.0828 18.6719 51.7235C18.5156 51.3642 18.2995 51.0643 18.0234 50.8239C17.7474 50.5835 17.4154 50.4038 17.0273 50.2849C16.6393 50.166 16.2161 50.1066 15.7578 50.1066C15.2474 50.1066 14.7852 50.1819 14.3711 50.3325C13.957 50.4831 13.6042 50.6786 13.3125 50.919C13.0208 51.1594 12.7956 51.4302 12.6367 51.7314C12.4779 52.0326 12.3984 52.3364 12.3984 52.6429H13.8516C13.8516 52.4632 13.8958 52.2915 13.9844 52.1277C14.0729 51.9639 14.1966 51.8199 14.3555 51.6957C14.5143 51.5716 14.7057 51.4725 14.9297 51.3985C15.1536 51.3246 15.401 51.2876 15.6719 51.2876C16.2604 51.2876 16.7057 51.4395 17.0078 51.7433C17.3099 52.0471 17.4609 52.4553 17.4609 52.9679V53.6416H16.0234C15.4453 53.6416 14.9219 53.7023 14.4531 53.8239C13.9844 53.9454 13.5846 54.125 13.2539 54.3628C12.9232 54.6006 12.6693 54.8952 12.4922 55.2466C12.3151 55.5979 12.2266 56.0035 12.2266 56.4632C12.2266 56.8172 12.2943 57.1488 12.4297 57.4579C12.5651 57.767 12.7565 58.0352 13.0039 58.2624C13.2513 58.4896 13.5508 58.6692 13.9023 58.8013C14.2539 58.9334 14.6458 58.9995 15.0781 58.9995ZM15.2891 57.7234C15.0234 57.7234 14.7904 57.6851 14.5898 57.6085C14.3893 57.5319 14.2201 57.4288 14.082 57.2994C13.944 57.1699 13.8411 57.0154 13.7734 56.8357C13.7057 56.6561 13.6719 56.4632 13.6719 56.2571C13.6719 55.7287 13.8958 55.3337 14.3438 55.0722C14.7917 54.8106 15.4297 54.6799 16.2578 54.6799H17.4609V56.4394C17.3828 56.6032 17.2747 56.7617 17.1367 56.915C16.9987 57.0682 16.8359 57.2043 16.6484 57.3232C16.4609 57.442 16.2526 57.5385 16.0234 57.6125C15.7943 57.6864 15.5495 57.7234 15.2891 57.7234ZM24.2812 58.9995C24.7708 58.9995 25.2161 58.9374 25.6172 58.8132C26.0182 58.6891 26.362 58.516 26.6484 58.2941C26.9349 58.0722 27.1549 57.8053 27.3086 57.4936C27.4622 57.1818 27.5391 56.8384 27.5391 56.4632C27.5391 56.1145 27.4779 55.808 27.3555 55.5438C27.2331 55.2796 27.0469 55.0458 26.7969 54.8423C26.5469 54.6389 26.2318 54.4606 25.8516 54.3073C25.4714 54.1541 25.0234 54.0167 24.5078 53.8952C24.1068 53.8054 23.7799 53.7169 23.5273 53.6297C23.2747 53.5425 23.0755 53.4474 22.9297 53.3443C22.7839 53.2413 22.6849 53.1264 22.6328 52.9996C22.5807 52.8727 22.5547 52.7301 22.5547 52.5716C22.5547 52.413 22.5859 52.2585 22.6484 52.1079C22.7109 51.9573 22.8099 51.8226 22.9453 51.7037C23.0807 51.5848 23.2539 51.4897 23.4648 51.4183C23.6758 51.347 23.9323 51.3113 24.2344 51.3113C24.5208 51.3113 24.7734 51.3549 24.9922 51.4421C25.2109 51.5293 25.3958 51.6429 25.5469 51.7829C25.6979 51.923 25.8125 52.0815 25.8906 52.2585C25.9688 52.4355 26.0078 52.6112 26.0078 52.7856H27.4609C27.4609 52.4157 27.388 52.0683 27.2422 51.7433C27.0964 51.4183 26.8841 51.1343 26.6055 50.8913C26.3268 50.6482 25.9883 50.4567 25.5898 50.3166C25.1914 50.1766 24.7396 50.1066 24.2344 50.1066C23.7604 50.1066 23.3307 50.174 22.9453 50.3087C22.5599 50.4435 22.2318 50.6257 21.9609 50.8556C21.6901 51.0855 21.4805 51.3523 21.332 51.6561C21.1836 51.9599 21.1094 52.2809 21.1094 52.6191C21.1094 52.9731 21.1797 53.2823 21.3203 53.5465C21.4609 53.8106 21.6628 54.0392 21.9258 54.232C22.1888 54.4249 22.5078 54.59 22.8828 54.7274C23.2578 54.8648 23.6797 54.9837 24.1484 55.0841C24.5651 55.1739 24.901 55.2717 25.1562 55.3773C25.4115 55.483 25.6081 55.5979 25.7461 55.7221C25.8841 55.8463 25.9766 55.9784 26.0234 56.1184C26.0703 56.2584 26.0938 56.4077 26.0938 56.5662C26.0938 56.7406 26.0547 56.9031 25.9766 57.0537C25.8984 57.2043 25.7826 57.335 25.6289 57.446C25.4753 57.557 25.2865 57.6442 25.0625 57.7076C24.8385 57.771 24.5781 57.8027 24.2812 57.8027C24.0521 57.8027 23.8229 57.7763 23.5938 57.7234C23.3646 57.6706 23.1536 57.5807 22.9609 57.4539C22.7682 57.3271 22.6081 57.162 22.4805 56.9586C22.3529 56.7551 22.2812 56.5028 22.2656 56.2016H20.8203C20.8203 56.5557 20.8958 56.9004 21.0469 57.236C21.1979 57.5715 21.4193 57.87 21.7109 58.1316C22.0026 58.3932 22.3633 58.6032 22.793 58.7617C23.2227 58.9202 23.7188 58.9995 24.2812 58.9995ZM30.8672 58.841V52.7301C31.0651 52.3179 31.3411 51.985 31.6953 51.7314C32.0495 51.4778 32.4609 51.351 32.9297 51.351C33.2057 51.351 33.4492 51.3853 33.6602 51.454C33.8711 51.5227 34.0482 51.631 34.1914 51.779C34.3346 51.9269 34.4427 52.1185 34.5156 52.3536C34.5885 52.5887 34.625 52.8727 34.625 53.2056V58.841H36.0703V53.2215C36.0703 52.6614 36.0065 52.1845 35.8789 51.7909C35.7513 51.3972 35.5703 51.0749 35.3359 50.8239C35.1016 50.5729 34.8177 50.3906 34.4844 50.277C34.151 50.1634 33.7786 50.1066 33.3672 50.1066C32.8464 50.1066 32.375 50.2123 31.9531 50.4236C31.5312 50.635 31.1693 50.9283 30.8672 51.3034V46.6667H29.4219V58.841H30.8672ZM43.9219 58.841V53.7446H48.6953V52.5002H43.9219V48.5531H49.4688V47.3008H42.4219V58.841H43.9219ZM52.6094 58.841V46.6667H51.1641V58.841H52.6094ZM58.3906 58.9995C58.9844 58.9995 59.5182 58.8898 59.9922 58.6706C60.4661 58.4513 60.8698 58.1475 61.2031 57.7591C61.5365 57.3707 61.7917 56.911 61.9688 56.38C62.1458 55.8489 62.2344 55.2717 62.2344 54.6482V54.4738C62.2344 53.8503 62.1458 53.273 61.9688 52.742C61.7917 52.2109 61.5365 51.7499 61.2031 51.3589C60.8698 50.9679 60.4648 50.6614 59.9883 50.4395C59.5117 50.2176 58.974 50.1066 58.375 50.1066C57.7865 50.1066 57.2552 50.2176 56.7812 50.4395C56.3073 50.6614 55.9049 50.9679 55.5742 51.3589C55.2435 51.7499 54.9883 52.2109 54.8086 52.742C54.6289 53.273 54.5391 53.8503 54.5391 54.4738V54.6482C54.5391 55.2717 54.6289 55.8489 54.8086 56.38C54.9883 56.911 55.2448 57.3707 55.5781 57.7591C55.9115 58.1475 56.3151 58.4513 56.7891 58.6706C57.263 58.8898 57.7969 58.9995 58.3906 58.9995ZM58.3906 57.8027C57.9896 57.8027 57.6393 57.7181 57.3398 57.549C57.0404 57.38 56.7904 57.1514 56.5898 56.8635C56.3893 56.5755 56.2396 56.2413 56.1406 55.8608C56.0417 55.4804 55.9922 55.0762 55.9922 54.6482V54.4738C55.9922 54.0511 56.0417 53.6482 56.1406 53.2651C56.2396 52.882 56.3893 52.5465 56.5898 52.2585C56.7904 51.9705 57.0391 51.7407 57.3359 51.5689C57.6328 51.3972 57.9792 51.3113 58.375 51.3113C58.776 51.3113 59.1276 51.3972 59.4297 51.5689C59.7318 51.7407 59.9831 51.9705 60.1836 52.2585C60.3841 52.5465 60.5352 52.882 60.6367 53.2651C60.7383 53.6482 60.7891 54.0511 60.7891 54.4738V54.6482C60.7891 55.0762 60.7383 55.4804 60.6367 55.8608C60.5352 56.2413 60.3854 56.5755 60.1875 56.8635C59.9896 57.1514 59.7396 57.38 59.4375 57.549C59.1354 57.7181 58.7865 57.8027 58.3906 57.8027ZM66.9141 58.841L68.9141 52.3417L70.9688 58.841H72.1406L74.6016 50.2651H73.1562L71.5312 56.8199L69.5234 50.2651H68.3594L66.3906 56.6851L64.7266 50.2651H63.2891L65.7422 58.841H66.9141ZM81.7578 58.841V54.347L81.6094 49.5201L85.3359 58.841H86.4844L90.2188 49.4963L90.0781 54.347V58.841H91.5781V47.3008H89.6328L85.9141 56.7168L82.1953 47.3008H80.2578V58.841H81.7578ZM96.6094 58.9995C96.8698 58.9995 97.1172 58.9717 97.3516 58.9163C97.5859 58.8608 97.8034 58.7842 98.0039 58.6864C98.2044 58.5887 98.3893 58.4751 98.5586 58.3456C98.7279 58.2161 98.8802 58.0801 99.0156 57.9374C99.0365 58.1118 99.0625 58.2796 99.0938 58.4407C99.125 58.6019 99.1667 58.7353 99.2188 58.841H100.734V58.7142C100.635 58.4817 100.561 58.2056 100.512 57.8859C100.462 57.5662 100.438 57.2611 100.438 56.9705V52.9837C100.438 52.5029 100.359 52.0828 100.203 51.7235C100.047 51.3642 99.8307 51.0643 99.5547 50.8239C99.2786 50.5835 98.9466 50.4038 98.5586 50.2849C98.1706 50.166 97.7474 50.1066 97.2891 50.1066C96.7786 50.1066 96.3164 50.1819 95.9023 50.3325C95.4883 50.4831 95.1354 50.6786 94.8438 50.919C94.5521 51.1594 94.3268 51.4302 94.168 51.7314C94.0091 52.0326 93.9297 52.3364 93.9297 52.6429H95.3828C95.3828 52.4632 95.4271 52.2915 95.5156 52.1277C95.6042 51.9639 95.7279 51.8199 95.8867 51.6957C96.0456 51.5716 96.237 51.4725 96.4609 51.3985C96.6849 51.3246 96.9323 51.2876 97.2031 51.2876C97.7917 51.2876 98.237 51.4395 98.5391 51.7433C98.8411 52.0471 98.9922 52.4553 98.9922 52.9679V53.6416H97.5547C96.9766 53.6416 96.4531 53.7023 95.9844 53.8239C95.5156 53.9454 95.1159 54.125 94.7852 54.3628C94.4544 54.6006 94.2005 54.8952 94.0234 55.2466C93.8464 55.5979 93.7578 56.0035 93.7578 56.4632C93.7578 56.8172 93.8255 57.1488 93.9609 57.4579C94.0964 57.767 94.2878 58.0352 94.5352 58.2624C94.7826 58.4896 95.082 58.6692 95.4336 58.8013C95.7852 58.9334 96.1771 58.9995 96.6094 58.9995ZM96.8203 57.7234C96.5547 57.7234 96.3216 57.6851 96.1211 57.6085C95.9206 57.5319 95.7513 57.4288 95.6133 57.2994C95.4753 57.1699 95.3724 57.0154 95.3047 56.8357C95.237 56.6561 95.2031 56.4632 95.2031 56.2571C95.2031 55.7287 95.4271 55.3337 95.875 55.0722C96.3229 54.8106 96.9609 54.6799 97.7891 54.6799H98.9922V56.4394C98.9141 56.6032 98.806 56.7617 98.668 56.915C98.53 57.0682 98.3672 57.2043 98.1797 57.3232C97.9922 57.442 97.7839 57.5385 97.5547 57.6125C97.3255 57.6864 97.0807 57.7234 96.8203 57.7234ZM105.172 58.9995C105.432 58.9995 105.654 58.981 105.836 58.944C106.018 58.907 106.167 58.8727 106.281 58.841V57.6521C106.208 57.6679 106.105 57.6877 105.973 57.7115C105.84 57.7353 105.714 57.7472 105.594 57.7472C105.474 57.7472 105.358 57.7353 105.246 57.7115C105.134 57.6877 105.035 57.6389 104.949 57.5649C104.863 57.4909 104.794 57.3866 104.742 57.2518C104.69 57.1171 104.664 56.9387 104.664 56.7168V51.3985H106.242V50.2651H104.664V48.1885H103.219V50.2651H101.68V51.3985H103.219V56.7089C103.219 57.1369 103.271 57.4975 103.375 57.7908C103.479 58.084 103.62 58.3205 103.797 58.5002C103.974 58.6798 104.181 58.8079 104.418 58.8846C104.655 58.9612 104.906 58.9995 105.172 58.9995ZM110.398 58.9995C110.659 58.9995 110.88 58.981 111.062 58.944C111.245 58.907 111.393 58.8727 111.508 58.841V57.6521C111.435 57.6679 111.332 57.6877 111.199 57.7115C111.066 57.7353 110.94 57.7472 110.82 57.7472C110.701 57.7472 110.585 57.7353 110.473 57.7115C110.361 57.6877 110.262 57.6389 110.176 57.5649C110.09 57.4909 110.021 57.3866 109.969 57.2518C109.917 57.1171 109.891 56.9387 109.891 56.7168V51.3985H111.469V50.2651H109.891V48.1885H108.445V50.2651H106.906V51.3985H108.445V56.7089C108.445 57.1369 108.497 57.4975 108.602 57.7908C108.706 58.084 108.846 58.3205 109.023 58.5002C109.201 58.6798 109.408 58.8079 109.645 58.8846C109.882 58.9612 110.133 58.9995 110.398 58.9995ZM116.664 58.9995C117.086 58.9995 117.464 58.9533 117.797 58.8608C118.13 58.7683 118.426 58.6441 118.684 58.4883C118.941 58.3324 119.167 58.1554 119.359 57.9572C119.552 57.7591 119.716 57.5543 119.852 57.343L118.969 56.6455C118.703 56.9942 118.393 57.2743 118.039 57.4856C117.685 57.697 117.253 57.8027 116.742 57.8027C116.357 57.8027 116.012 57.7287 115.707 57.5807C115.402 57.4328 115.142 57.232 114.926 56.9784C114.71 56.7247 114.543 56.4262 114.426 56.0827C114.309 55.7393 114.245 55.3694 114.234 54.9731H119.961V54.3153C119.961 53.7129 119.893 53.1554 119.758 52.6429C119.622 52.1304 119.413 51.6865 119.129 51.3113C118.845 50.9362 118.484 50.6416 118.047 50.4276C117.609 50.2136 117.089 50.1066 116.484 50.1066C116.005 50.1066 115.544 50.2057 115.102 50.4038C114.659 50.602 114.266 50.8886 113.922 51.2638C113.578 51.6389 113.303 52.1013 113.098 52.6508C112.892 53.2004 112.789 53.8239 112.789 54.5213V54.8542C112.789 55.4566 112.88 56.0114 113.062 56.5187C113.245 57.0259 113.505 57.4632 113.844 57.8304C114.182 58.1976 114.59 58.4843 115.066 58.6904C115.543 58.8965 116.076 58.9995 116.664 58.9995ZM118.516 53.7684H114.281C114.328 53.3721 114.415 53.0207 114.543 52.7142C114.671 52.4078 114.831 52.1515 115.023 51.9454C115.216 51.7393 115.435 51.5821 115.68 51.4738C115.924 51.3655 116.193 51.3113 116.484 51.3113C116.854 51.3113 117.164 51.38 117.414 51.5174C117.664 51.6548 117.868 51.8345 118.027 52.0564C118.186 52.2783 118.303 52.5293 118.379 52.8093C118.454 53.0894 118.5 53.3721 118.516 53.6574V53.7684ZM123.078 58.841V52.7539C123.234 52.3787 123.47 52.0802 123.785 51.8582C124.1 51.6363 124.508 51.5253 125.008 51.5253C125.143 51.5253 125.264 51.5293 125.371 51.5372C125.478 51.5452 125.594 51.5597 125.719 51.5808V50.2176C125.667 50.1911 125.573 50.166 125.438 50.1423C125.302 50.1185 125.182 50.1066 125.078 50.1066C124.609 50.1066 124.211 50.2096 123.883 50.4157C123.555 50.6218 123.281 50.9018 123.062 51.2559L123.039 50.2651H121.633V58.841H123.078ZM130.156 58.9995C130.646 58.9995 131.091 58.9374 131.492 58.8132C131.893 58.6891 132.237 58.516 132.523 58.2941C132.81 58.0722 133.03 57.8053 133.184 57.4936C133.337 57.1818 133.414 56.8384 133.414 56.4632C133.414 56.1145 133.353 55.808 133.23 55.5438C133.108 55.2796 132.922 55.0458 132.672 54.8423C132.422 54.6389 132.107 54.4606 131.727 54.3073C131.346 54.1541 130.898 54.0167 130.383 53.8952C129.982 53.8054 129.655 53.7169 129.402 53.6297C129.15 53.5425 128.951 53.4474 128.805 53.3443C128.659 53.2413 128.56 53.1264 128.508 52.9996C128.456 52.8727 128.43 52.7301 128.43 52.5716C128.43 52.413 128.461 52.2585 128.523 52.1079C128.586 51.9573 128.685 51.8226 128.82 51.7037C128.956 51.5848 129.129 51.4897 129.34 51.4183C129.551 51.347 129.807 51.3113 130.109 51.3113C130.396 51.3113 130.648 51.3549 130.867 51.4421C131.086 51.5293 131.271 51.6429 131.422 51.7829C131.573 51.923 131.688 52.0815 131.766 52.2585C131.844 52.4355 131.883 52.6112 131.883 52.7856H133.336C133.336 52.4157 133.263 52.0683 133.117 51.7433C132.971 51.4183 132.759 51.1343 132.48 50.8913C132.202 50.6482 131.863 50.4567 131.465 50.3166C131.066 50.1766 130.615 50.1066 130.109 50.1066C129.635 50.1066 129.206 50.174 128.82 50.3087C128.435 50.4435 128.107 50.6257 127.836 50.8556C127.565 51.0855 127.355 51.3523 127.207 51.6561C127.059 51.9599 126.984 52.2809 126.984 52.6191C126.984 52.9731 127.055 53.2823 127.195 53.5465C127.336 53.8106 127.538 54.0392 127.801 54.232C128.064 54.4249 128.383 54.59 128.758 54.7274C129.133 54.8648 129.555 54.9837 130.023 55.0841C130.44 55.1739 130.776 55.2717 131.031 55.3773C131.286 55.483 131.483 55.5979 131.621 55.7221C131.759 55.8463 131.852 55.9784 131.898 56.1184C131.945 56.2584 131.969 56.4077 131.969 56.5662C131.969 56.7406 131.93 56.9031 131.852 57.0537C131.773 57.2043 131.658 57.335 131.504 57.446C131.35 57.557 131.161 57.6442 130.938 57.7076C130.714 57.771 130.453 57.8027 130.156 57.8027C129.927 57.8027 129.698 57.7763 129.469 57.7234C129.24 57.6706 129.029 57.5807 128.836 57.4539C128.643 57.3271 128.483 57.162 128.355 56.9586C128.228 56.7551 128.156 56.5028 128.141 56.2016H126.695C126.695 56.5557 126.771 56.9004 126.922 57.236C127.073 57.5715 127.294 57.87 127.586 58.1316C127.878 58.3932 128.238 58.6032 128.668 58.7617C129.098 58.9202 129.594 58.9995 130.156 58.9995Z" fill="#8B8B8B"/>
<path d="M135.053 51.7382V49.8776H135.718V49.5745H134.026V49.8776H134.686V51.7382H135.053ZM137.853 50.0724L137.817 51.0249V51.7382H138.187V49.5745H137.708L137.094 51.233L136.479 49.5745H135.998V51.7382H136.367V51.0249L136.331 50.0723L136.959 51.7382H137.224L137.853 50.0724Z" fill="#8B8B8B"/>
</svg>
